# xmcd
#
# Track frame offsets: 
#        150
#        34112
#        56091
#        70214
#        105412
#        121716
#        141697
#        164246
#        194678
#        226608
#        267418
#
# Disc length: 3971 seconds
#
# Revision: 0
# Processed by: cddbd v1.5.2PL0 Copyright (c) Steve Scherf et al.
# Submitted via: ExactAudioCopy v1.0b3
#
DISCID=a40f810b
DTITLE=Various Artist - The Best In Trance Vol. 4 - CD 2
DYEAR=1900
DGENRE=
TTITLE0=Alex Bartlett and Andy Guess - Universe Inside
TTITLE1=Jens O. - Reason (Original Mix)
TTITLE2=4 Strings - Take Me Away (Into The Night)
TTITLE3=Andy Duguid - Hypocrisy
TTITLE4=Ronski Speed With Stoneface and Terminal - Soulseeker
TTITLE5=Lolo - Take My Hand
TTITLE6=Velvet Girl - A New Dawn
TTITLE7=Comiccon - Komodo 2007 (Dream Dance Alliance Rmx)
TTITLE8=DJ Dean - If I Could Be You
TTITLE9=Cosmic Culture - Northern Star
TTITLE10=Scotty - West End Girls
EXTD=
EXTT0=
EXTT1=
EXTT2=
EXTT3=
EXTT4=
EXTT5=
EXTT6=
EXTT7=
EXTT8=
EXTT9=
EXTT10=
PLAYORDER=
